<svg id="Layer_1" enable-background="new 0 0 512 512" height="512" viewBox="0 0 512 512" width="512" xmlns="http://www.w3.org/2000/svg"><g><g><g><g><g><g id="XMLID_1797_"><g id="XMLID_1798_"><g id="XMLID_1799_"><g id="XMLID_1800_"><g id="XMLID_1801_"><g id="XMLID_1802_"><g id="XMLID_1803_"><g id="XMLID_1804_"><g id="XMLID_1805_"><g id="XMLID_1806_"><g id="XMLID_1807_"><g id="XMLID_1808_"><g id="XMLID_1809_"><g id="XMLID_1810_"><g id="XMLID_1811_"><circle cx="256" cy="256" fill="#00da80" r="256"/></g></g></g></g></g></g></g></g></g></g></g></g></g></g></g></g></g></g></g><path d="m511.96 260.533-168.987-169.884-200.723 322.5 97.445 98.34c5.392.339 10.828.511 16.305.511 139.871 0 253.542-112.173 255.96-251.467z" fill="#00b4bc"/><g><g><g><path d="m396.831 369.737h-77.383v-37h77.383c10.473 0 18.993-8.521 18.993-18.994v-79.523c0-10.473-8.521-18.993-18.993-18.993h-77.383v-37h77.383c30.875 0 55.993 25.118 55.993 55.993v79.523c0 30.875-25.118 55.994-55.993 55.994z" fill="#e7f9fb"/></g></g><path d="m295.895 430.217h-111.522c-33.428 0-60.526-27.098-60.526-60.526v-191.465l116.287-28.82 116.287 28.82v191.465c0 33.428-27.099 60.526-60.526 60.526z" fill="#ffe705"/><path d="m356.422 178.222v191.47c0 33.43-27.1 60.52-60.53 60.52h-55.76v-280.81z" fill="#ffb454"/><path d="m308.528 75.498c-8.29-.005-16.089 2.095-22.891 5.794-10.292-13.944-26.842-22.989-45.503-22.989-18.662 0-35.211 9.045-45.503 22.989-6.802-3.699-14.6-5.799-22.889-5.794-26.346.015-47.894 22.406-47.894 48.752v53.977h20.418c11.061 0 20.027 8.967 20.027 20.027v70.715c0 14.695 11.912 26.607 26.607 26.607 14.695 0 26.607-11.913 26.607-26.607v-70.715c0-11.061 8.967-20.027 20.027-20.027h118.886v-53.977c.001-26.345-21.547-48.736-47.892-48.752z" fill="#fff"/><path d="m356.422 124.252v53.97h-116.29v-119.92c18.66 0 35.21 9.05 45.5 22.99 6.81-3.7 14.61-5.8 22.9-5.79 26.34.01 47.89 22.4 47.89 48.75z" fill="#e7f9fb"/></g></g></svg>